<?xml version="1.0" standalone="no"?>
<!DOCTYPE svg PUBLIC "-//W3C//DTD SVG 20010904//EN"
 "http://www.w3.org/TR/2001/REC-SVG-20010904/DTD/svg10.dtd">
<svg version="1.0" xmlns="http://www.w3.org/2000/svg"
 width="700.000000pt" height="700.000000pt" viewBox="0 0 700.000000 700.000000"
 preserveAspectRatio="xMidYMid meet">
<metadata>
Created by potrace 1.11, written by Peter Selinger 2001-2013
</metadata>
<g transform="translate(0.000000,700.000000) scale(0.100000,-0.100000)"
fill="#000000" stroke="none">
<path d="M1799 6265 c-3 -2 -212 -79 -464 -170 -253 -91 -461 -168 -463 -170
-3 -2 2 -10 9 -17 22 -21 713 -603 725 -610 6 -4 84 17 175 46 542 176 682
218 688 209 7 -11 291 -448 392 -605 63 -98 68 -102 100 -101 19 0 198 4 399
8 201 4 387 8 413 9 51 2 61 -5 71 -55 3 -13 14 -55 24 -94 78 -285 116 -422
139 -498 14 -49 26 -94 27 -100 9 -47 18 -54 104 -79 563 -167 748 -223 755
-229 5 -4 8 -67 7 -140 -1 -74 -2 -264 -3 -423 l-2 -288 205 -133 c113 -73
278 -180 367 -237 89 -56 162 -108 163 -114 0 -7 -25 -92 -56 -190 -30 -99
-85 -273 -121 -389 -36 -115 -70 -225 -75 -242 -8 -29 -5 -37 20 -65 16 -18
82 -94 146 -168 64 -74 125 -144 134 -155 10 -11 47 -54 82 -95 36 -41 75 -86
88 -100 12 -14 59 -69 105 -122 45 -53 84 -97 87 -97 6 -1 12 16 208 596 l118
352 -20 24 c-12 13 -71 78 -132 143 -62 65 -125 133 -140 150 -16 17 -76 82
-134 144 -205 220 -188 195 -184 259 3 48 8 167 19 406 1 33 6 134 10 225 4
91 8 187 9 215 l1 49 -70 43 c-38 23 -79 47 -90 53 -11 5 -157 92 -324 192
l-305 183 -63 250 c-34 138 -65 263 -68 278 -3 15 -22 92 -42 170 -20 78 -36
148 -36 155 0 6 -16 16 -36 22 -98 26 -412 107 -626 162 -134 34 -247 68 -256
77 -13 13 -189 295 -288 462 -9 15 -49 82 -89 148 l-74 121 -91 -5 c-209 -13
-246 -15 -342 -20 -112 -6 -225 -13 -364 -20 -52 -3 -97 -8 -101 -10 -11 -7
-112 76 -239 195 -14 14 -67 61 -116 105 -50 44 -92 82 -95 85 -3 3 -45 41
-95 85 -49 44 -101 90 -114 102 -21 21 -60 30 -72 18z"/>
<path d="M1850 4274 c-69 -12 -164 -30 -211 -39 -47 -9 -101 -19 -120 -21 -19
-3 -45 -7 -59 -10 -14 -2 -63 -11 -110 -19 -47 -9 -97 -17 -110 -20 -91 -18
-257 -47 -267 -48 -13 0 -4 -13 69 -99 25 -29 76 -89 113 -133 37 -44 74 -89
84 -100 9 -11 86 -103 171 -205 85 -101 162 -193 170 -202 13 -16 22 -17 80
-8 102 17 112 18 160 25 25 3 56 8 70 10 28 4 166 24 220 31 51 7 91 14 120
19 14 2 48 7 75 10 93 12 110 15 138 21 15 3 27 2 28 -3 1 -16 108 -405 169
-613 10 -36 24 -85 31 -110 7 -25 15 -48 19 -52 3 -4 100 -35 215 -68 116 -34
224 -65 240 -70 17 -6 108 -33 204 -60 96 -28 176 -51 177 -53 2 -2 -10 -111
-20 -182 -3 -16 -8 -57 -11 -90 -3 -33 -8 -71 -10 -85 -2 -14 -7 -43 -9 -65
-3 -22 -10 -76 -16 -120 -5 -44 -13 -105 -16 -135 -3 -30 -9 -71 -12 -90 -17
-85 -35 -66 343 -371 193 -155 370 -299 395 -320 50 -43 54 -41 64 36 17 119
24 167 52 350 13 88 27 175 29 193 3 17 8 49 11 70 3 20 12 75 19 122 8 47 17
108 21 135 l6 51 -124 93 c-68 52 -229 174 -359 272 l-236 178 -20 83 c-12 46
-63 248 -113 450 l-92 367 -52 11 c-28 6 -73 18 -101 25 -122 32 -139 37 -154
40 -9 2 -81 20 -161 40 -80 20 -190 48 -245 62 -55 13 -104 25 -110 27 -5 1
-27 6 -48 11 -33 6 -50 24 -153 154 -64 80 -129 162 -144 181 -16 19 -60 76
-100 125 -111 141 -133 168 -160 196 l-25 26 -125 -23z"/>
<path d="M1635 2103 c-178 -36 -319 -139 -397 -290 -46 -89 -59 -140 -62 -243
-2 -86 17 -170 60 -255 145 -291 515 -391 787 -210 65 43 83 59 128 115 100
124 141 298 109 458 -18 88 -83 202 -153 272 -65 64 -187 132 -262 146 -46 8
-181 13 -210 7z"/>
</g>
</svg>
