<?xml version="1.0" standalone="no"?>
<!DOCTYPE svg PUBLIC "-//W3C//DTD SVG 20010904//EN"
 "http://www.w3.org/TR/2001/REC-SVG-20010904/DTD/svg10.dtd">
<svg version="1.0" xmlns="http://www.w3.org/2000/svg"
 width="700.000000pt" height="700.000000pt" viewBox="0 0 700.000000 700.000000"
 preserveAspectRatio="xMidYMid meet">
<metadata>
Created by potrace 1.11, written by Peter Selinger 2001-2013
</metadata>
<g transform="translate(0.000000,700.000000) scale(0.100000,-0.100000)"
fill="#000000" stroke="none">
<path d="M1107 6118 c-87 -18 -170 -86 -206 -168 -73 -166 28 -366 202 -399
29 -5 131 -12 227 -16 96 -3 195 -8 220 -10 65 -4 162 -16 180 -20 8 -2 42 -7
75 -11 33 -3 62 -8 65 -9 3 -2 26 -6 50 -10 88 -13 278 -56 401 -90 68 -19
134 -37 146 -40 36 -8 264 -91 343 -125 41 -17 84 -34 95 -38 46 -13 390 -191
505 -260 110 -65 276 -174 320 -209 8 -6 60 -46 115 -89 437 -337 851 -809
1107 -1262 86 -152 228 -437 228 -456 0 -3 11 -29 24 -58 112 -243 264 -789
291 -1048 3 -30 8 -62 10 -70 2 -8 7 -51 11 -95 3 -44 8 -89 10 -100 2 -11 6
-94 9 -185 9 -271 18 -313 89 -383 90 -90 217 -116 326 -65 69 31 115 78 148
147 21 46 25 69 26 155 0 97 -11 339 -18 401 -2 17 -8 66 -12 110 -4 44 -8 82
-9 85 -1 3 -5 30 -9 60 -4 30 -11 78 -16 105 -5 28 -11 64 -14 80 -55 323
-188 770 -311 1050 -14 33 -36 83 -48 110 -78 182 -265 518 -400 720 -63 94
-213 299 -238 325 -8 8 -27 32 -42 53 -16 20 -38 48 -50 61 -12 13 -40 46 -62
72 -42 51 -361 374 -430 435 -511 452 -1134 808 -1770 1012 -110 35 -348 102
-395 111 -39 8 -70 15 -88 20 -9 3 -33 8 -52 11 -19 3 -55 10 -80 15 -25 5
-61 12 -80 14 -19 3 -78 12 -130 20 -83 13 -141 20 -265 32 -169 16 -446 23
-498 12z"/>
<path d="M1120 4080 c-93 -16 -182 -88 -223 -179 -56 -127 4 -295 129 -363 59
-32 82 -36 250 -43 72 -3 139 -7 150 -9 10 -2 46 -7 79 -10 33 -4 76 -11 95
-16 19 -5 49 -11 65 -14 175 -31 485 -149 658 -252 358 -213 635 -483 840
-819 57 -95 167 -316 167 -338 0 -7 4 -17 9 -22 10 -12 75 -211 92 -281 6 -27
13 -58 15 -69 19 -78 45 -281 49 -390 8 -172 11 -189 42 -248 74 -135 244
-189 379 -121 70 35 128 100 150 167 33 97 14 402 -42 677 -28 138 -91 361
-123 435 -5 11 -21 52 -37 90 -113 284 -308 595 -523 835 -283 314 -609 551
-1006 730 -93 42 -324 124 -381 136 -6 1 -36 9 -65 17 -47 13 -144 34 -244 52
-16 3 -55 8 -85 11 -30 3 -61 7 -68 10 -11 3 -152 12 -292 18 -25 1 -61 -1
-80 -4z"/>
<path d="M1316 2024 c-160 -38 -317 -168 -389 -325 -69 -150 -66 -342 9 -493
46 -92 85 -142 158 -201 293 -233 725 -136 886 199 48 101 64 182 57 289 -10
156 -68 280 -183 390 -62 61 -164 117 -256 140 -72 19 -204 19 -282 1z"/>
</g>
</svg>
