<svg viewBox="0 0 1059 1059" xmlns="http://www.w3.org/2000/svg" xmlns:xlink="http://www.w3.org/1999/xlink"><style>:root>svg{display:none}:root>svg:target{display:block}</style><svg fill="none" stroke="currentColor" stroke-width="2" stroke-linecap="round" stroke-linejoin="round" viewBox="0 0 24 24" id="activity"><path d="M22 12h-4l-3 9L9 3l-3 9H2"/></svg><svg fill="none" stroke="currentColor" stroke-width="2" stroke-linecap="round" stroke-linejoin="round" viewBox="0 0 24 24" id="archive"><path d="M21 8v13H3V8M1 3h22v5H1zM10 12h4"/></svg><svg fill="none" stroke="currentColor" stroke-width="2" stroke-linecap="round" stroke-linejoin="round" viewBox="0 0 24 24" id="arrow-left"><path d="M20 12H4M10 18l-6-6 6-6"/></svg><svg fill="none" stroke="currentColor" stroke-width="2" stroke-linecap="round" stroke-linejoin="round" viewBox="0 0 24 24" id="arrow-right"><path d="M4 12h16M14 6l6 6-6 6"/></svg><svg fill="none" stroke="currentColor" stroke-width="2" stroke-linecap="round" stroke-linejoin="round" viewBox="0 0 24 24" id="award"><circle cx="12" cy="8" r="7"/><path d="M8.21 13.89L7 23l5-3 5 3-1.21-9.12"/></svg><svg fill="none" stroke="currentColor" stroke-width="2" stroke-linecap="round" stroke-linejoin="round" viewBox="0 0 24 24" id="bar-chart-2"><path d="M10 3h4v18h-4zM18 8h4v13h-4zM2 13h4v8H2z"/></svg><svg version="1" viewBox="0 0 1059 1059" id="beer"><path d="M134 0l-4 1a118 118 0 00-99 98c-2 7-2 77-2 403l1 400 4 22a178 178 0 00152 134h455l9-2a188 188 0 0070-30l7-6a183 183 0 0061-91l6-38v-7c0-1 3-2 19-2a284 284 0 0044-2 206 206 0 00171-182V358l-2-7-5-27c-4-12-15-38-21-47l-5-7a207 207 0 00-181-93l-20-1-1-36a236 236 0 00-2-50l-10-26a120 120 0 00-81-62L414 0H134zm541 118l1 29v30H415l-4 9c-5 15-10 24-16 31a60 60 0 01-57 17l-14-3c-2 0-3 0-9 11a95 95 0 01-32 37 86 86 0 01-89 5c-10-5-10-5-18-13a85 85 0 01-29-53v-99l264-1h264zm1 447l-1 330-2 6-4 10a78 78 0 01-15 17c-5 5-19 11-28 13H197c-24-4-45-25-50-49V324l4 2a159 159 0 0026 14c17 9 38 13 61 12 16 0 20 0 36-5 8-2 13-3 24-9 19-9 34-21 50-39l5-5h8c36-3 69-22 89-53l4-6h222v330zm169-268a93 93 0 0117 6c25 11 44 38 49 68v316l-3 15a91 91 0 01-57 59l-9 2-56 2h-51V294h51c49 1 51 1 59 3z"/><path d="M285 413c-8 3-16 10-19 19-2 5-2 18-2 187v183l3 4c7 15 25 22 39 15 6-3 11-8 14-14l2-5V433l-2-4c-5-10-14-16-25-17l-10 1zm117 1c-6 2-11 6-14 10-6 9-6-5-6 195l1 184 2 4c7 14 24 20 38 14 7-3 12-8 15-15l2-4V435l-2-5c-3-6-8-12-14-15s-17-4-22-1zm118-1c-9 4-16 11-19 19-2 6-2 361 0 369 1 6 4 11 9 15 15 13 37 8 46-10l2-5V436l-2-5c-5-12-13-18-25-19l-11 1z"/></svg><svg fill="none" stroke="currentColor" stroke-width="2" stroke-linecap="round" stroke-linejoin="round" viewBox="0 0 24 24" id="book"><path d="M4 19.5A2.5 2.5 0 016.5 17H20"/><path d="M6.5 2H20v20H6.5A2.5 2.5 0 014 19.5v-15A2.5 2.5 0 016.5 2z"/></svg><svg fill="none" stroke="currentColor" stroke-width="2" stroke-linecap="round" stroke-linejoin="round" viewBox="0 0 24 24" id="briefcase"><rect x="2" y="7" width="20" height="14" rx="2" ry="2"/><path d="M16 21V5a2 2 0 00-2-2h-4a2 2 0 00-2 2v16"/></svg><svg viewBox="0 0 1000 600" id="by"><path fill="#fff" d="M0 0h1000v600H0z"/><path d="M963.563 0H742.375L1000 570v30H792.375L521.187 0H300l271.188 600H350L150 157.5 0 119.25V315l128.813 285H350L0 510.75V315l1000 255V374.25L150 157.5 78.812 0H300l700 178.5V80.625z" fill="#0098d4"/></svg><svg fill="none" stroke="currentColor" stroke-width="2" stroke-linecap="round" stroke-linejoin="round" viewBox="0 0 24 24" id="calendar"><rect x="3" y="4" width="18" height="18" rx="2" ry="2"/><path d="M16 2v4M8 2v4M3 10h18"/></svg><svg version="1" viewBox="5.5 -3.5 64 64" id="cc"><circle cx="37.8" cy="28.5" r="28.8" fill="none"/><path d="M37.4-3.5a31.2 31.2 0 0129.8 19.7 32.6 32.6 0 010 24.6 32.9 32.9 0 01-29.7 19.7A31.1 31.1 0 0114.8 51 31.9 31.9 0 0137.4-3.5zm.2 5.8C30.2 2.3 24 4.8 19 9.9a27.5 27.5 0 00-5.8 8.6 25.2 25.2 0 000 20 26.5 26.5 0 0043 8.3c5-4.8 7.4-11 7.4-18.3A26.3 26.3 0 0056.1 10a25.3 25.3 0 00-18.5-7.7zm-.4 20.9l-4.3 2.2c-.5-1-1-1.6-1.7-2-.7-.4-1.3-.6-1.9-.6-2.8 0-4.3 2-4.3 5.7 0 1.7.4 3 1.1 4.1.7 1 1.8 1.6 3.2 1.6 1.9 0 3.2-1 4-2.8l4 2a9.4 9.4 0 01-8.5 5c-2.8 0-5.2-.8-6.9-2.6a9.9 9.9 0 01-2.6-7.3c0-3 .9-5.5 2.6-7.3a9 9 0 016.7-2.6c4 0 6.8 1.5 8.6 4.6zm18.4 0l-4.2 2.2c-.5-1-1-1.6-1.7-2-.7-.4-1.3-.6-2-.6-2.8 0-4.2 2-4.2 5.7 0 1.7.4 3 1 4.1.8 1 1.9 1.6 3.3 1.6 1.8 0 3.2-1 4-2.8l4 2c-1 1.6-2.1 2.8-3.6 3.7a9.2 9.2 0 01-4.9 1.3c-2.9 0-5.2-.8-7-2.6a10 10 0 01-2.5-7.3c0-3 .9-5.5 2.6-7.3a9 9 0 016.8-2.6c4 0 6.7 1.5 8.4 4.6z"/></svg><svg fill="none" stroke="currentColor" stroke-width="2" stroke-linecap="round" stroke-linejoin="round" viewBox="0 0 24 24" id="check"><path d="M20 6L9 17l-5-5"/></svg><svg fill="none" stroke="currentColor" stroke-width="2" stroke-linecap="round" stroke-linejoin="round" viewBox="0 0 24 24" id="chevrons-right"><path d="M13 17l5-5-5-5M6 17l5-5-5-5"/></svg><svg viewBox="0 0 9 6" id="de"><path fill="#ffce00" d="M0 0h9v6H0z"/><path fill="#d00" d="M0 0h9v4H0z"/><path d="M0 0h9v2H0z"/></svg><svg fill="none" stroke="currentColor" stroke-width="2" stroke-linecap="round" stroke-linejoin="round" viewBox="0 0 24 24" id="download"><path d="M3 17v3a2 2 0 002 2h14a2 2 0 002-2v-3M8 12l4 4 4-4M12 2v14"/></svg><svg fill="none" stroke="currentColor" stroke-width="2" stroke-linecap="round" stroke-linejoin="round" viewBox="0 0 24 24" id="edit"><path d="M11 4H4a2 2 0 00-2 2v14a2 2 0 002 2h14a2 2 0 002-2v-7"/><path d="M18.5 2.5a2.121 2.121 0 013 3L12 15l-4 1 1-4 9.5-9.5z"/></svg><svg fill="none" stroke="currentColor" stroke-width="2" stroke-linecap="round" stroke-linejoin="round" viewBox="0 0 24 24" id="external-link"><path d="M18 13v6a2 2 0 01-2 2H5a2 2 0 01-2-2V8a2 2 0 012-2h6M15 3h6v6M10 14L21 3"/></svg><svg fill="none" stroke="currentColor" stroke-width="2" stroke-linecap="round" stroke-linejoin="round" viewBox="0 0 24 24" id="facebook"><path d="M18 2h-3a5 5 0 00-5 5v3H7v4h3v8h4v-8h3l1-4h-4V7a1 1 0 011-1h3z"/></svg><svg fill="none" stroke="currentColor" stroke-width="2" stroke-linecap="round" stroke-linejoin="round" viewBox="0 0 24 24" id="file-text"><path d="M14 2H6a2 2 0 00-2 2v16a2 2 0 002 2h12a2 2 0 002-2V8z"/><path d="M14 2v6h6M16 13H8M16 17H8M10 9H8"/></svg><svg fill="#da131a" viewBox="0 0 82.78 51.01" id="fire-truck"><path d="M82.78 18.07v3.51H37.46v-3.51c0-.36.29-.65.65-.65h44.02c.36 0 .65.29.65.65zm-7.12 24c.01.181.021.36.021.54 0 .36-.29.65-.65.65s-.65-.29-.65-.65c0-.18-.01-.359-.02-.54-.29-4.979-4.42-8.95-9.46-8.95V31.4h16.38v-9.82h1.5v19.84c0 .35-.29.649-.65.649H75.66z"/><path d="M73.03 42.74c0 4.49-3.65 8.141-8.13 8.141-4.49 0-8.14-3.65-8.14-8.141v-.13l.029-.54c.351-4.17 3.851-7.46 8.11-7.46 4.25 0 7.75 3.29 8.09 7.46.021.181.03.36.03.54.001.05.011.09.011.13zm0-28.03V9.55h-4.29v5.16zm5.59 0V9.55h-4.29v5.16zm-33.56 0V9.55h-4.29v5.16zm5.59 0V9.55h-4.29v5.16zm5.6 0V9.55h-4.29v5.16zm5.59 0V9.55h-4.29v5.16zm1.3 0h4.29V9.55h-4.29zM39.47 9.55h-1.36c-.36 0-.65-.29-.65-.65s.29-.65.65-.65h44.02c.36 0 .65.29.65.65s-.29.65-.65.65h-2.21v5.16h2.21c.36 0 .65.29.65.65s-.29.65-.65.65H38.11c-.36 0-.65-.29-.65-.65s.29-.65.65-.65h1.36zM26.68 42.88c0 4.479-3.65 8.13-8.14 8.13s-8.14-3.65-8.14-8.13c0-.051.01-.091.01-.141 0-.22.01-.45.04-.67.4-4.109 3.88-7.33 8.09-7.33s7.69 3.221 8.09 7.33c.03.22.04.45.04.67 0 .051.01.091.01.141zm-.25-39.93l-1.97 2.21c-.13.14-.31.21-.49.21-.15 0-.31-.05-.43-.16a.65.65 0 01-.05-.92l1.98-2.21c.24-.27.65-.29.91-.05.27.24.29.65.05.92zM21.18.65v2.97c0 .36-.29.65-.65.65-.35 0-.65-.29-.65-.65V.65c0-.36.3-.65.65-.65.36 0 .65.29.65.65zm-3.29 3.64c.24.27.22.68-.05.92-.12.11-.28.16-.43.16a.63.63 0 01-.48-.21l-1.98-2.21c-.24-.27-.22-.68.05-.92s.68-.22.92.05z"/><path d="M32.09 23.9V13.57c0-.27-.22-.5-.5-.5h-3.84c-.27 0-.5.23-.5.5V23.9c0 .271.23.5.5.5h3.84c.28 0 .5-.23.5-.5zm-7.65-13.32h9.84c.35 0 .65.29.65.65v17.04h2.53v-6.69h1.57v9.82H64.9v1.72c-5.05 0-9.18 3.971-9.47 8.95-.011.181-.03.36-.03.54a.649.649 0 11-1.299 0c0-.18.02-.359.029-.54H29.3c.01.22.03.45.03.67 0 .36-.29.65-.65.65s-.65-.29-.65-.65c0-.22-.02-.45-.03-.67-.35-4.92-4.46-8.819-9.46-8.819S9.43 37.15 9.08 42.07c-.01.22-.03.45-.03.67 0 .36-.29.65-.65.65s-.65-.29-.65-.65c0-.22.02-.45.03-.67H2.84c-.2 0-.38-.09-.5-.24L.15 39.15a.61.61 0 01-.15-.41v-4.72c0-.35.29-.65.65-.65h1.54v-8.02c.03.01.06.02.09.02h.06l6.05-.979a.49.49 0 00.44-.43l1.44-10.32a.49.49 0 00-.11-.39.527.527 0 00-.38-.18H6.43L7.5 11.02c.09-.26.34-.44.62-.44h8.51v-1.1a3.905 3.905 0 017.81 0zm.53 2.99c0-.27-.23-.5-.5-.5H13.28c-.26 0-.47.19-.5.44l-1.34 10.66a.498.498 0 00.5.559h.01l12.53-.33c.27-.01.49-.229.49-.5z"/></svg><svg fill="none" stroke="currentColor" stroke-width="2" stroke-linecap="round" stroke-linejoin="round" viewBox="0 0 24 24" id="github"><path d="M9 19c-5 1.5-5-2.5-7-3m14 6v-3.87a3.37 3.37 0 00-.94-2.61c3.14-.35 6.44-1.54 6.44-7A5.44 5.44 0 0020 4.77 5.07 5.07 0 0019.91 1S18.73.65 16 2.48a13.38 13.38 0 00-7 0C6.27.65 5.09 1 5.09 1A5.07 5.07 0 005 4.77a5.44 5.44 0 00-1.5 3.78c0 5.42 3.3 6.61 6.44 7A3.37 3.37 0 009 18.13V22"/></svg><svg fill="none" stroke="currentColor" stroke-width="2" stroke-linecap="round" stroke-linejoin="round" viewBox="0 0 24 24" id="google"><path d="M21.8 10h-2.6 0H12v4h5.7c-.8 2.3-3 4-5.7 4-3.3 0-6-2.7-6-6s2.7-6 6-6c1.7 0 3.2.7 4.2 1.8L19 5c-1.7-1.9-4.2-3-7-3C6.5 2 2 6.5 2 12s4.5 10 10 10 10-4.5 10-10c0-.7-.1-1.4-.2-2z"/></svg><svg fill="none" stroke="currentColor" stroke-width="2" stroke-linecap="round" stroke-linejoin="round" viewBox="0 0 24 24" id="heart"><path d="M20.84 4.61a5.5 5.5 0 00-7.78 0L12 5.67l-1.06-1.06a5.5 5.5 0 00-7.78 7.78l1.06 1.06L12 21.23l7.78-7.78 1.06-1.06a5.5 5.5 0 000-7.78z"/></svg><svg fill="none" stroke="currentColor" stroke-width="2" stroke-linecap="round" stroke-linejoin="round" viewBox="0 0 24 24" id="home"><path d="M3 9l9-7 9 7v11a2 2 0 01-2 2H5a2 2 0 01-2-2z"/><path d="M9 22V12h6v10"/></svg><svg fill="none" stroke="currentColor" stroke-width="2" stroke-linecap="round" stroke-linejoin="round" viewBox="0 0 24 24" id="image"><rect x="3" y="3" width="18" height="18" rx="2" ry="2"/><circle cx="8.5" cy="8.5" r="1.5"/><path d="M21 15l-5-5L5 21"/></svg><svg viewBox="0 0 100 100" id="impressum"><path fill-rule="evenodd" d="M57 6.6a17 17 0 0111.2 12.7c.6 2.7.8 2.7-1 2.7H62c-2.2 0-1.7.5-3.2-3.7-2.8-7.3-12.1-7-16-3.5a6.5 6.5 0 000 10c3.8 3.3 8.1 6 12.3 9 4 2.7 8.2 5.2 12 8.1 7.1 5.8 6.7 18.7-1.8 23L62 66.5l3 3.2c7 7.1 4.8 19.2-4.4 23A24 24 0 0139 92c-4.6-2.4-7-6.7-8-11.7-.2-.5-.2-1.3 0-1.3 1.9-.7 3.8-1.1 5.8-1.6 1.1-.4 1.4 1.2 1.8 2.1 1.2 2.1 1.6 3 3.7 5 4.2 4.2 13 3.8 16.3.7 3-3 3.1-8-.5-10.9-4.3-3.5-9-6.4-13.6-9.7-4.2-3-8.6-5.8-12.4-9.3-6.7-6.2-5.2-18 3.9-22.8l1.6-.9-2-2.8c-6.4-8.3-3-18.9 7-22.4 8.5-3 14.5.2 14.5.2zm7.5 47.8c-.4-3.4-2.6-6.1-5.5-8.1-5.1-3.7-10.5-7-15.7-10.5-.6-.3-1.7-.4-2.3-.1-7.3 4.4-7.7 11-1.8 15.5 5.6 4.1 11.5 7.7 17.3 11.5.6.3 1.4.4 2 .2 3-.8 6-5.1 6-8.5z" clip-rule="evenodd"/></svg><svg fill="none" stroke="currentColor" stroke-width="2" stroke-linecap="round" stroke-linejoin="round" viewBox="0 0 24 24" id="info"><circle cx="12" cy="12" r="10"/><path d="M12 16v-4M12 8h0"/></svg><svg fill="none" stroke="currentColor" stroke-width="2" stroke-linecap="round" stroke-linejoin="round" viewBox="0 0 24 24" id="link"><path d="M10 13a5 5 0 007.54.54l3-3a5 5 0 00-7.07-7.07l-1.72 1.71"/><path d="M14 11a5 5 0 00-7.54-.54l-3 3a5 5 0 007.07 7.07l1.71-1.71"/></svg><svg fill="none" stroke="currentColor" stroke-width="2" stroke-linecap="round" stroke-linejoin="round" viewBox="0 0 24 24" id="lock"><rect x="3" y="11" width="18" height="11" rx="2" ry="2"/><path d="M7 11V7a5 5 0 0110 0v4"/></svg><svg fill="none" stroke="currentColor" stroke-width="2" stroke-linecap="round" stroke-linejoin="round" viewBox="0 0 24 24" id="mail"><path d="M4 4h16c1.1 0 2 .9 2 2v12c0 1.1-.9 2-2 2H4c-1.1 0-2-.9-2-2V6c0-1.1.9-2 2-2z"/><path d="M22 6l-10 7L2 6"/></svg><svg fill="none" stroke="currentColor" stroke-width="2" stroke-linecap="round" stroke-linejoin="round" viewBox="0 0 24 24" id="map"><path d="M1 6v16l7-4 8 4 7-4V2l-7 4-8-4-7 4zM8 2v16M16 6v16"/></svg><svg fill="none" stroke="currentColor" stroke-width="2" stroke-linecap="round" stroke-linejoin="round" viewBox="0 0 24 24" id="message-circle"><path d="M21 11.5a8.38 8.38 0 01-.9 3.8 8.5 8.5 0 01-7.6 4.7 8.38 8.38 0 01-3.8-.9L3 21l1.9-5.7a8.38 8.38 0 01-.9-3.8 8.5 8.5 0 014.7-7.6 8.38 8.38 0 013.8-.9h.5a8.48 8.48 0 018 8v.5z"/></svg><svg fill="none" stroke="currentColor" stroke-width="2" stroke-linecap="round" stroke-linejoin="round" viewBox="0 0 24 24" id="message-square"><path d="M21 15a2 2 0 01-2 2H7l-4 4V5a2 2 0 012-2h14a2 2 0 012 2z"/></svg><svg fill="none" stroke="currentColor" stroke-width="2" stroke-linecap="round" stroke-linejoin="round" viewBox="0 0 24 24" id="minus"><path d="M5 12h14"/></svg><svg fill="none" stroke="currentColor" stroke-width="2" stroke-linecap="round" stroke-linejoin="round" viewBox="0 0 24 24" id="moon"><path d="M21 12.79A9 9 0 1111.21 3 7 7 0 0021 12.79z"/></svg><svg fill="none" stroke="currentColor" stroke-width="2" stroke-linecap="round" stroke-linejoin="round" viewBox="0 0 24 24" id="play"><path d="M5 3l14 9-14 9V3z"/></svg><svg fill="none" stroke="currentColor" stroke-width="2" stroke-linecap="round" stroke-linejoin="round" viewBox="0 0 24 24" id="plus"><path d="M12 5v14M5 12h14"/></svg><svg fill="none" stroke="currentColor" stroke-width="2" stroke-linecap="round" stroke-linejoin="round" viewBox="0 0 24 24" id="repeat"><path d="M17 1l4 4-4 4"/><path d="M3 11V9a4 4 0 014-4h14M7 23l-4-4 4-4"/><path d="M21 13v2a4 4 0 01-4 4H3"/></svg><svg fill="none" stroke="currentColor" stroke-width="2" stroke-linecap="round" stroke-linejoin="round" viewBox="0 0 24 24" id="rss"><path d="M4 11a9 9 0 019 9M4 4a16 16 0 0116 16"/><circle cx="5" cy="19" r="1"/></svg><svg fill="none" stroke="currentColor" stroke-width="2" stroke-linecap="round" stroke-linejoin="round" viewBox="0 0 24 24" id="search"><circle cx="10.5" cy="10.5" r="7.5"/><path d="M21 21l-5.2-5.2"/></svg><svg fill="none" stroke="currentColor" stroke-width="2" stroke-linecap="round" stroke-linejoin="round" viewBox="0 0 24 24" id="send"><path d="M22 2L11 13M22 2l-7 20-4-9-9-4 20-7z"/></svg><svg fill="none" stroke="currentColor" stroke-width="2" stroke-linecap="round" stroke-linejoin="round" viewBox="0 0 24 24" id="share-2"><circle cx="18" cy="5" r="3"/><circle cx="6" cy="12" r="3"/><circle cx="18" cy="19" r="3"/><path d="M8.59 13.51l6.83 3.98M15.41 6.51l-6.82 3.98"/></svg><svg fill="none" stroke="currentColor" stroke-width="2" stroke-linecap="round" stroke-linejoin="round" viewBox="0 0 24 24" id="shield"><path d="M12 22s8-4 8-10V5l-8-3-8 3v7c0 6 8 10 8 10z"/></svg><svg fill="none" stroke="currentColor" stroke-width="2" stroke-linecap="round" stroke-linejoin="round" viewBox="0 0 24 24" id="smile"><circle cx="12" cy="12" r="10"/><path d="M8 14s1.5 2 4 2 4-2 4-2M9 9h.01M15 9h.01"/></svg><svg fill="none" stroke="currentColor" stroke-width="2" stroke-linecap="round" stroke-linejoin="round" viewBox="0 0 24 24" id="star"><path d="M12 2l3.09 6.26L22 9.27l-5 4.87 1.18 6.88L12 17.77l-6.18 3.25L7 14.14 2 9.27l6.91-1.01L12 2z"/></svg><svg fill="none" stroke="currentColor" stroke-width="2" stroke-linecap="round" stroke-linejoin="round" viewBox="0 0 24 24" id="sun"><circle cx="12" cy="12" r="5"/><path d="M12 1v2M12 21v2M4.22 4.22l1.42 1.42M18.36 18.36l1.42 1.42M1 12h2M21 12h2M4.22 19.78l1.42-1.42M18.36 5.64l1.42-1.42"/></svg><svg fill="none" stroke="currentColor" stroke-width="2" stroke-linecap="round" stroke-linejoin="round" viewBox="0 0 24 24" id="tag"><path d="M20.59 13.41l-7.17 7.17a2 2 0 01-2.83 0L2 12V2h10l8.59 8.59a2 2 0 010 2.82zM7 7h0"/></svg><svg fill="none" stroke="currentColor" stroke-width="2" stroke-linecap="round" stroke-linejoin="round" viewBox="0 0 24 24" id="trending-up"><path d="M23 6l-9.5 9.5-5-5L1 18"/><path d="M17 6h6v6"/></svg><svg fill="none" stroke="currentColor" stroke-width="2" stroke-linecap="round" stroke-linejoin="round" viewBox="0 0 24 24" id="tv"><rect x="2" y="7" width="20" height="15" rx="2" ry="2"/><path d="M17 2l-5 5-5-5"/></svg><svg fill="none" stroke="currentColor" stroke-width="2" stroke-linecap="round" stroke-linejoin="round" viewBox="0 0 24 24" id="twitter"><path d="M23 3a10.9 10.9 0 01-3.14 1.53 4.48 4.48 0 00-7.86 3v1A10.66 10.66 0 013 4s-4 9 5 13a11.64 11.64 0 01-7 2c9 5 20 0 20-11.5a4.5 4.5 0 00-.08-.83A7.72 7.72 0 0023 3z"/></svg><svg fill="none" stroke="currentColor" stroke-width="2" stroke-linecap="round" stroke-linejoin="round" viewBox="0 0 24 24" id="upload"><path d="M21 15v4a2 2 0 01-2 2H5a2 2 0 01-2-2v-4M17 8l-5-5-5 5M12 3v12"/></svg><svg fill="none" stroke="currentColor" stroke-width="2" stroke-linecap="round" stroke-linejoin="round" viewBox="0 0 24 24" id="user-plus"><path d="M16 21v-2a4 4 0 00-4-4H5a4 4 0 00-4 4v2"/><circle cx="8.5" cy="7" r="4"/><path d="M20 8v6M23 11h-6"/></svg><svg fill="none" stroke="currentColor" stroke-width="2" stroke-linecap="round" stroke-linejoin="round" viewBox="0 0 24 24" id="users"><path d="M17 21v-2a4 4 0 00-4-4H5a4 4 0 00-4 4v2"/><circle cx="9" cy="7" r="4"/><path d="M23 21v-2a4 4 0 00-3-3.87M16 3.13a4 4 0 010 7.75"/></svg><svg fill="none" stroke="currentColor" stroke-width="2" stroke-linecap="round" stroke-linejoin="round" viewBox="0 0 24 24" id="video"><path d="M23 7l-7 5 7 5V7z"/><rect x="1" y="5" width="15" height="14" rx="2" ry="2"/></svg><svg fill="none" stroke="currentColor" stroke-width="2" stroke-linecap="round" stroke-linejoin="round" viewBox="0 0 24 24" id="volume-2"><path d="M11 5L6 9H2v6h4l5 4V5zM19.07 4.93a10 10 0 010 14.14M15.54 8.46a5 5 0 010 7.07"/></svg></svg>